<?xml version="1.0" encoding="UTF-8" standalone="no"?>
<!-- Generator: Adobe Illustrator 15.1.0, SVG Export Plug-In . SVG Version: 6.00 Build 0)  -->

<svg
   xmlns:dc="http://purl.org/dc/elements/1.1/"
   xmlns:cc="http://creativecommons.org/ns#"
   xmlns:rdf="http://www.w3.org/1999/02/22-rdf-syntax-ns#"
   xmlns:svg="http://www.w3.org/2000/svg"
   xmlns="http://www.w3.org/2000/svg"
   xmlns:sodipodi="http://sodipodi.sourceforge.net/DTD/sodipodi-0.dtd"
   xmlns:inkscape="http://www.inkscape.org/namespaces/inkscape"
   version="1.1"
   id="SilkS"
   x="0px"
   y="0px"
   width="425.2px"
   height="425.2px"
   viewBox="0 0 425.2 425.2"
   enable-background="new 0 0 425.2 425.2"
   xml:space="preserve"
   inkscape:version="0.91 r13725"
   sodipodi:docname="logo.svg"><metadata
     id="metadata13"><rdf:RDF><cc:Work
         rdf:about=""><dc:format>image/svg+xml</dc:format><dc:type
           rdf:resource="http://purl.org/dc/dcmitype/StillImage" /></cc:Work></rdf:RDF></metadata><defs
     id="defs11" /><sodipodi:namedview
     pagecolor="#ffffff"
     bordercolor="#666666"
     borderopacity="1"
     objecttolerance="10"
     gridtolerance="10"
     guidetolerance="10"
     inkscape:pageopacity="0"
     inkscape:pageshadow="2"
     inkscape:window-width="1036"
     inkscape:window-height="787"
     id="namedview9"
     showgrid="false"
     inkscape:zoom="4.4402633"
     inkscape:cx="114.54211"
     inkscape:cy="315.53819"
     inkscape:window-x="0"
     inkscape:window-y="0"
     inkscape:window-maximized="0"
     inkscape:current-layer="layer1" /><g
     inkscape:groupmode="layer"
     id="layer1"
     inkscape:label="SilkS"><path
       d="m 140.31305,102.55986 c -0.50917,0.7525 -0.99271,1.51043 -1.45021,2.27376 -0.45666,0.76334 -0.88723,1.5314 -1.29556,2.30307 -0.40834,0.77166 -0.79072,1.54751 -1.15072,2.32584 -0.36,0.77834 -0.69817,1.558 -1.014,2.3405 -0.31584,0.78251 -0.60804,1.5661 -0.88054,2.35027 -0.2725,0.78416 -0.52271,1.56935 -0.75521,2.35352 -0.2325,0.78416 -0.44386,1.56938 -0.63802,2.35188 -0.19417,0.7825 -0.36901,1.56459 -0.52734,2.34375 -0.15834,0.77917 -0.29981,1.55741 -0.42481,2.33074 -0.125,0.77333 -0.23219,1.54211 -0.32552,2.30794 -0.0933,0.76584 -0.17183,1.5277 -0.236,2.28353 -0.065,0.75584 -0.11467,1.50681 -0.153,2.25098 -0.0383,0.74417 -0.0632,1.48355 -0.0765,2.21355 -0.0133,0.73 -0.0165,1.4538 -0.008,2.16797 0.008,0.71417 0.027,1.42001 0.0553,2.11751 0.0283,0.6975 0.0657,1.38551 0.11067,2.06218 -0.115,0.105 -0.24566,0.2255 -0.389,0.36133 -0.14333,0.135 -0.29882,0.28509 -0.46549,0.44759 -0.16667,0.1625 -0.34397,0.33742 -0.52898,0.52409 -0.18499,0.18666 -0.37783,0.38411 -0.57616,0.59245 -0.19834,0.20833 -0.40127,0.42921 -0.6071,0.65755 -0.20667,0.22833 -0.41746,0.46543 -0.62663,0.71127 -0.21,0.245 -0.41992,0.49929 -0.62826,0.75845 -0.20833,0.26001 -0.41598,0.52587 -0.61848,0.79754 -0.2025,0.27166 -0.40079,0.55003 -0.59245,0.8317 -0.19084,0.28083 -0.37514,0.56616 -0.55014,0.85449 -0.175,0.28834 -0.34062,0.58069 -0.49479,0.87403 -0.15417,0.29333 -0.29647,0.58716 -0.4248,0.88216 -0.12833,0.295 -0.24267,0.59041 -0.34017,0.88542 -0.0975,0.29416 -0.17922,0.58807 -0.24089,0.8789 -0.0617,0.29084 -0.10366,0.58006 -0.12532,0.86589 -0.0208,0.28583 -0.0209,0.56802 0.003,0.84636 0.0292,0.33 0.065,0.67682 0.1058,1.03516 0.0417,0.35833 0.0891,0.72922 0.1416,1.1084 0.0517,0.37917 0.10761,0.76873 0.16927,1.16373 0.0608,0.39417 0.12456,0.79216 0.19206,1.19466 0.0675,0.4025 0.13746,0.80757 0.20996,1.21257 0.0717,0.40417 0.14798,0.80768 0.22298,1.20769 0.075,0.4 0.1504,0.79493 0.22624,1.18326 0.0758,0.38834 0.15286,0.76929 0.22786,1.14095 0.0758,0.37084 0.15049,0.7316 0.22299,1.07911 0.0725,0.3475 0.14325,0.68105 0.21158,0.99772 0.0683,0.31667 0.13365,0.61681 0.19532,0.89681 0.0608,0.28 0.1184,0.5405 0.1709,0.778 0.0525,0.2375 0.10072,0.45052 0.14322,0.63802 0.0425,0.1875 0.0798,0.34847 0.11068,0.48014 0.0308,0.13167 0.0542,0.2344 0.07,0.30273 0.0167,0.0692 0.0244,0.10417 0.0244,0.10417 l 0.0846,0 0.0846,0 0.0846,0 0.0846,0 0.0846,0 0.0846,0 0.0846,0 0.0846,0 0.0846,0 0.0846,0 0.0846,0 0.0846,0 0.0846,0 0.083,0 0.0846,0 0.0846,0 c 0,0 -7.9e-4,-0.0257 -0.002,-0.0749 -0.002,-0.0492 -0.003,-0.12234 -0.005,-0.21484 -0.002,-0.0925 -0.002,-0.20604 -0.003,-0.33854 -8.3e-4,-0.1325 -0.003,-0.28418 -0.003,-0.45085 0,-0.16667 0.002,-0.34942 0.005,-0.54525 0.002,-0.19666 0.006,-0.40742 0.0114,-0.62825 0.006,-0.22167 0.0144,-0.45253 0.0244,-0.69336 0.01,-0.24083 0.0208,-0.49041 0.0358,-0.74708 0.015,-0.25666 0.0329,-0.51866 0.0537,-0.7845 0.0208,-0.26583 0.0441,-0.53646 0.0716,-0.80729 0.0283,-0.27167 0.0602,-0.54377 0.096,-0.81543 0.0358,-0.27167 0.0747,-0.54225 0.11882,-0.80892 0.0442,-0.26667 0.0932,-0.53026 0.14648,-0.78776 0.0533,-0.2575 0.11325,-0.50942 0.17741,-0.75358 0.0642,-0.24334 0.13334,-0.47896 0.20834,-0.70313 0.0758,-0.22417 0.15743,-0.43719 0.24576,-0.63803 0.0692,-0.15916 0.1391,-0.3131 0.2116,-0.4606 0.0717,-0.14667 0.14393,-0.28735 0.2181,-0.42318 0.0742,-0.13583 0.14877,-0.26643 0.2246,-0.39226 0.0758,-0.125 0.15283,-0.2439 0.2295,-0.35807 0.0767,-0.11416 0.1544,-0.2246 0.23274,-0.32877 0.0783,-0.10417 0.15763,-0.20369 0.23763,-0.29786 0.08,-0.0942 0.16005,-0.18597 0.24089,-0.27181 0.0808,-0.0858 0.16247,-0.16584 0.24414,-0.24251 0.0817,-0.0767 0.16326,-0.1506 0.24576,-0.2181 0.0825,-0.0683 0.1649,-0.13043 0.2474,-0.19043 0.0825,-0.06 0.1657,-0.11677 0.24903,-0.16927 0.0833,-0.0517 0.16568,-0.0999 0.24902,-0.14486 0.0833,-0.045 0.16732,-0.0878 0.25066,-0.12532 0.0833,-0.0375 0.16651,-0.0725 0.24901,-0.10417 0.0825,-0.0317 0.16569,-0.0588 0.24903,-0.0846 0.0833,-0.025 0.1649,-0.0492 0.2474,-0.0684 0.0483,0.22584 0.0965,0.44819 0.14486,0.66569 0.0483,0.21834 0.0974,0.43291 0.14485,0.64291 0.0475,0.21 0.0957,0.41357 0.14323,0.61524 0.0467,0.20166 0.0925,0.39831 0.13834,0.59081 0.0458,0.1925 0.0917,0.38146 0.13673,0.56479 0.045,0.18333 0.0885,0.36211 0.13183,0.53711 0.0433,0.17416 0.0877,0.34444 0.12858,0.50944 0.0408,0.165 0.0813,0.32677 0.12045,0.48177 0.0392,0.155 0.0797,0.30501 0.11718,0.45085 0.0375,0.14583 0.0724,0.28734 0.10742,0.42317 0.035,0.13584 0.0693,0.26479 0.10091,0.39063 0.0325,0.125 0.0636,0.24632 0.0928,0.36132 0.0292,0.115 0.0563,0.22461 0.083,0.32878 0.0267,0.10417 0.0507,0.20289 0.0732,0.29622 0.0225,0.0933 0.0451,0.1828 0.0635,0.2653 0.0192,0.0825 0.0346,0.15866 0.0505,0.2295 0.275,0.1275 0.53924,0.2472 0.7959,0.3597 0.25584,0.1125 0.50302,0.21583 0.74219,0.3125 0.23916,0.0967 0.46756,0.18689 0.69173,0.26856 0.22417,0.0817 0.4418,0.15715 0.6543,0.22298 0.2125,0.0658 0.42003,0.12494 0.62337,0.17577 0.2025,0.0517 0.4015,0.0952 0.59733,0.13185 0.19584,0.0367 0.38939,0.0654 0.58106,0.0862 0.19167,0.0208 0.38371,0.0349 0.57454,0.0407 0.19084,0.006 0.38046,0.003 0.5713,-0.007 0.19083,-0.009 0.3828,-0.0255 0.5778,-0.0505 0.195,-0.025 0.39324,-0.0577 0.59407,-0.0977 0.20084,-0.04 0.40524,-0.0874 0.61524,-0.14322 0.21,-0.0558 0.4237,-0.11797 0.64453,-0.1888 0.22083,-0.07 0.44697,-0.14855 0.68196,-0.23438 0.23501,-0.0858 0.47751,-0.17912 0.72917,-0.27995 0.25083,-0.10083 0.50962,-0.20969 0.77962,-0.32552 0.0142,-0.065 0.0313,-0.13571 0.0505,-0.21322 0.0192,-0.0783 0.0409,-0.16307 0.0651,-0.2539 0.0242,-0.0908 0.0498,-0.18801 0.0781,-0.29134 0.0283,-0.10334 0.0611,-0.21295 0.0944,-0.32878 0.0333,-0.11583 0.0691,-0.23708 0.1058,-0.36458 0.0367,-0.12834 0.0755,-0.26202 0.11718,-0.40202 0.0408,-0.13918 0.0844,-0.28453 0.12858,-0.4362 0.045,-0.15083 0.09,-0.30951 0.13835,-0.47201 0.0483,-0.1625 0.0965,-0.33122 0.14649,-0.50456 0.05,-0.17333 0.10049,-0.35294 0.15299,-0.53711 0.0525,-0.18416 0.10613,-0.37303 0.16113,-0.56803 0.055,-0.195 0.11019,-0.39558 0.16602,-0.60059 0.0558,-0.205 0.1134,-0.4165 0.1709,-0.6315 0.0575,-0.21501 0.11582,-0.43419 0.17415,-0.65919 0.0583,-0.225 0.11824,-0.45594 0.17741,-0.69011 0.0592,-0.23416 0.11824,-0.47281 0.17741,-0.71614 0.0858,0.0158 0.17212,0.0353 0.25879,0.057 0.0867,0.0217 0.17537,0.0465 0.26204,0.0749 0.0867,0.0283 0.17455,0.061 0.26205,0.096 0.0875,0.035 0.17454,0.0738 0.26204,0.11718 0.0875,0.0433 0.17534,0.09 0.26368,0.13998 0.0875,0.0508 0.17454,0.10359 0.26204,0.16275 0.0875,0.0592 0.17537,0.12294 0.26204,0.19044 0.0867,0.0675 0.17213,0.1398 0.25879,0.21646 0.0867,0.0767 0.17379,0.15748 0.2588,0.24415 0.085,0.0867 0.16973,0.1784 0.2539,0.27506 0.0842,0.0967 0.16731,0.1985 0.25065,0.306 0.0833,0.1075 0.1641,0.2202 0.24577,0.33854 0.0817,0.11833 0.16251,0.24192 0.24251,0.37109 0.08,0.13 0.1585,0.26523 0.236,0.4069 0.0775,0.14167 0.15612,0.29018 0.23113,0.44434 0.0758,0.15417 0.14881,0.31427 0.22298,0.48177 0.0883,0.20083 0.17077,0.41386 0.24577,0.63803 0.0758,0.225 0.14416,0.45979 0.20833,0.70312 0.0642,0.24333 0.12324,0.49524 0.17741,0.75358 0.0542,0.25833 0.10231,0.52272 0.14648,0.78939 0.0442,0.26667 0.0838,0.53808 0.11882,0.80892 0.035,0.27083 0.0685,0.54376 0.096,0.81543 0.0275,0.27167 0.0508,0.54146 0.0716,0.80729 0.0208,0.26584 0.0387,0.52705 0.0537,0.78288 0.015,0.25583 0.0266,0.5054 0.0358,0.74707 0.01,0.24166 0.0186,0.47416 0.0244,0.69499 0.006,0.22083 0.009,0.42996 0.0114,0.62662 0.002,0.19584 0.005,0.38021 0.005,0.54688 0,0.16667 4e-5,0.31672 -0.002,0.44922 -8.3e-4,0.1325 -0.003,0.24684 -0.005,0.34017 -0.002,0.0933 -0.003,0.16489 -0.005,0.21322 -8.4e-4,0.0492 -0.002,0.0765 -0.002,0.0765 l 0.0846,0 0.0846,0 0.0846,0 0.0846,0 0.083,0 0.0863,0 0.0846,0 0.0846,0 0.083,0 0.0846,0 0.0863,0 0.083,0 0.0846,0 0.0846,0 0.0863,0 0.083,0 c 0,0 0.009,-0.0366 0.026,-0.10579 0.0158,-0.0692 0.04,-0.17028 0.07,-0.30111 0.03,-0.13083 0.0666,-0.29264 0.10905,-0.48014 0.0425,-0.1875 0.0907,-0.40135 0.14322,-0.63802 0.0525,-0.23667 0.11086,-0.49717 0.17253,-0.778 0.0617,-0.28 0.12618,-0.58093 0.19368,-0.89843 0.0675,-0.3175 0.1391,-0.64944 0.2116,-0.9961 0.0725,-0.34751 0.14715,-0.70827 0.22298,-1.07911 0.0758,-0.37166 0.15203,-0.7534 0.22787,-1.14257 0.0767,-0.38834 0.15123,-0.7841 0.22623,-1.18327 0.075,-0.39917 0.15132,-0.80352 0.22298,-1.20768 0.0725,-0.40417 0.14246,-0.80845 0.20996,-1.21095 0.0675,-0.4025 0.13123,-0.80211 0.19206,-1.19628 0.0608,-0.39417 0.11761,-0.78211 0.16928,-1.16211 0.0517,-0.37918 0.0999,-0.74924 0.1416,-1.1084 0.0417,-0.35834 0.0774,-0.70433 0.10579,-1.03516 0.0242,-0.27417 0.0241,-0.55329 0.003,-0.83496 -0.0208,-0.28167 -0.0605,-0.56537 -0.12045,-0.85287 -0.06,-0.2875 -0.13858,-0.57668 -0.23275,-0.86752 -0.095,-0.29 -0.2054,-0.58156 -0.3304,-0.87239 -0.12501,-0.29083 -0.26504,-0.5816 -0.41504,-0.87077 -0.15083,-0.28916 -0.31173,-0.57763 -0.4834,-0.86263 -0.17167,-0.285 -0.35287,-0.56803 -0.54037,-0.84636 -0.1875,-0.27833 -0.38109,-0.55277 -0.57942,-0.82193 -0.19834,-0.26917 -0.40127,-0.53352 -0.6071,-0.79102 -0.205,-0.25834 -0.41262,-0.50942 -0.62012,-0.75359 -0.2075,-0.24416 -0.41512,-0.4813 -0.62012,-0.70963 -0.205,-0.22833 -0.40634,-0.44676 -0.60384,-0.65593 -0.1975,-0.20916 -0.38954,-0.409 -0.57454,-0.59733 -0.185,-0.18833 -0.3631,-0.3656 -0.5306,-0.5306 -0.1675,-0.165 -0.32697,-0.31739 -0.47364,-0.45573 -0.14583,-0.13833 -0.27875,-0.26351 -0.39876,-0.37435 0.0567,-0.68 0.10411,-1.37115 0.14161,-2.07031 0.0375,-0.69916 0.0655,-1.40816 0.0814,-2.12566 0.0158,-0.7175 0.0214,-1.4444 0.013,-2.17773 -0.008,-0.73334 -0.0285,-1.47339 -0.0635,-2.22006 -0.035,-0.74666 -0.0856,-1.50078 -0.14974,-2.25911 -0.0642,-0.75834 -0.14502,-1.52171 -0.24252,-2.29004 -0.0975,-0.76833 -0.20929,-1.54188 -0.34179,-2.31771 -0.13167,-0.77583 -0.28085,-1.55479 -0.45085,-2.33562 -0.17,-0.78083 -0.35887,-1.56447 -0.56804,-2.34864 -0.20916,-0.78416 -0.4376,-1.57093 -0.6901,-2.35676 -0.2525,-0.78584 -0.52527,-1.57095 -0.82194,-2.35678 -0.29667,-0.78584 -0.61692,-1.57102 -0.96192,-2.35352 -0.345,-0.7825 -0.71256,-1.563 -1.1084,-2.3405 -0.395,-0.77833 -0.81631,-1.55338 -1.26465,-2.32422 -0.44833,-0.77083 -0.92324,-1.53893 -1.42741,-2.30143 -0.50333,-0.7625 -1.03501,-1.51884 -1.59667,-2.27051 z m 0.3011,20.24905 c 0.1525,0 0.30251,0.008 0.45085,0.0228 0.14833,0.015 0.29532,0.0376 0.43782,0.0667 0.1425,0.0292 0.28405,0.0665 0.42155,0.10905 0.13834,0.0425 0.27361,0.0923 0.40528,0.14811 0.13166,0.0558 0.25911,0.11643 0.38411,0.18393 0.12417,0.0683 0.24545,0.14218 0.36295,0.22135 0.1175,0.0792 0.23101,0.1639 0.34018,0.2539 0.10833,0.0892 0.21333,0.18483 0.3125,0.28484 0.0992,0.1 0.1932,0.20416 0.2832,0.3125 0.09,0.10832 0.17553,0.22104 0.25553,0.33853 0.0792,0.11751 0.1514,0.23796 0.21973,0.36296 0.0675,0.125 0.12972,0.25408 0.18555,0.38574 0.0558,0.13167 0.10477,0.26695 0.14812,0.40528 0.0433,0.13833 0.0799,0.27822 0.10904,0.42155 0.0292,0.14333 0.0517,0.2887 0.0667,0.4362 0.015,0.1475 0.0212,0.29917 0.0212,0.45084 0,0.15167 -0.006,0.30252 -0.0212,0.45085 -0.015,0.14834 -0.0376,0.2937 -0.0667,0.4362 -0.0292,0.1425 -0.0666,0.28568 -0.10904,0.42318 -0.0425,0.13833 -0.0923,0.27197 -0.14812,0.40364 -0.0558,0.13167 -0.11805,0.26074 -0.18555,0.38574 -0.0683,0.12417 -0.14056,0.24546 -0.21973,0.36296 -0.0792,0.1175 -0.16553,0.22938 -0.25553,0.33854 -0.0892,0.10834 -0.1832,0.21334 -0.2832,0.3125 -0.1,0.0992 -0.20417,0.19484 -0.3125,0.28484 -0.10833,0.09 -0.22268,0.17391 -0.34018,0.25391 -0.11749,0.0792 -0.23795,0.15301 -0.36295,0.22135 -0.125,0.0675 -0.25245,0.12971 -0.38411,0.18555 -0.13167,0.0558 -0.26694,0.10477 -0.40528,0.1481 -0.13833,0.0433 -0.27822,0.0783 -0.42155,0.10743 -0.14333,0.0292 -0.29032,0.0517 -0.43782,0.0667 -0.1475,0.015 -0.29835,0.0228 -0.45085,0.0228 -0.1525,0 -0.30251,-0.008 -0.45085,-0.0228 -0.14833,-0.015 -0.2937,-0.0376 -0.4362,-0.0667 -0.1425,-0.0292 -0.28405,-0.0649 -0.42155,-0.10743 -0.13833,-0.0425 -0.2736,-0.0923 -0.40526,-0.1481 -0.13167,-0.0558 -0.25912,-0.11805 -0.38412,-0.18555 -0.12417,-0.0683 -0.24546,-0.14219 -0.36296,-0.22135 -0.1175,-0.0792 -0.231,-0.16391 -0.34017,-0.25391 -0.10833,-0.0892 -0.2125,-0.18484 -0.3125,-0.28484 -0.1,-0.1 -0.1932,-0.20416 -0.2832,-0.3125 -0.0892,-0.10833 -0.17474,-0.22104 -0.25391,-0.33854 -0.0792,-0.1175 -0.15302,-0.23796 -0.22136,-0.36296 -0.0683,-0.125 -0.1297,-0.25407 -0.18554,-0.38574 -0.0558,-0.13167 -0.10561,-0.26531 -0.14811,-0.40364 -0.0433,-0.13834 -0.0782,-0.27984 -0.10742,-0.42318 -0.0292,-0.14333 -0.0517,-0.2887 -0.0667,-0.4362 -0.015,-0.1475 -0.0228,-0.29835 -0.0228,-0.45085 0,-0.1525 0.008,-0.30251 0.0228,-0.45084 0.015,-0.14833 0.0376,-0.2937 0.0667,-0.4362 0.0292,-0.1425 0.0649,-0.28405 0.10742,-0.42155 0.0425,-0.13833 0.0923,-0.27361 0.14811,-0.40528 0.0558,-0.13166 0.11721,-0.26074 0.18554,-0.38574 0.0683,-0.12417 0.14136,-0.24546 0.22136,-0.36296 0.08,-0.1175 0.16474,-0.22936 0.25391,-0.33853 0.09,-0.10833 0.18404,-0.21333 0.2832,-0.3125 0.0992,-0.0992 0.20417,-0.19484 0.3125,-0.28484 0.10834,-0.09 0.22267,-0.1739 0.34017,-0.2539 0.1175,-0.0792 0.23796,-0.15302 0.36296,-0.22135 0.125,-0.0675 0.25245,-0.1281 0.38412,-0.18393 0.13166,-0.0558 0.26693,-0.10477 0.40526,-0.14811 0.13834,-0.0433 0.27822,-0.0799 0.42155,-0.10905 0.14334,-0.0292 0.2887,-0.0517 0.4362,-0.0667 0.1475,-0.015 0.29835,-0.0228 0.45085,-0.0228 z"
       id="path3"
       inkscape:connector-curvature="0" /><path
       d="m 135.96577,159.96265 c 0.2425,0.13 0.47917,0.24834 0.71084,0.35584 0.23166,0.1075 0.45917,0.20416 0.68167,0.29083 0.22333,0.0867 0.44166,0.16167 0.65583,0.22833 0.21417,0.0667 0.425,0.1225 0.63167,0.17084 0.20666,0.0483 0.41,0.0867 0.61,0.11666 0.2,0.03 0.3975,0.0525 0.59083,0.0667 0.19333,0.0142 0.385,0.0208 0.57417,0.0208 0.18917,0 0.37583,-0.007 0.56,-0.02 0.18417,-0.0133 0.36667,-0.0333 0.54833,-0.0583 0.18167,-0.025 0.36084,-0.0558 0.53834,-0.0917 0.1775,-0.0358 0.355,-0.0758 0.53083,-0.12083 0.17583,-0.045 0.35167,-0.0942 0.52667,-0.14667 0.175,-0.0525 0.34917,-0.10916 0.52417,-0.16833 0.175,-0.0592 0.34916,-0.12167 0.52416,-0.18583 0.175,-0.0642 0.35,-0.13084 0.52584,-0.19834 0.17583,-0.0683 0.35333,-0.13833 0.53166,-0.20833 0,0 8.4e-4,0.002 0.002,0.007 0.002,0.005 0.003,0.0108 0.007,0.02 0.003,0.009 0.007,0.0208 0.0108,0.035 0.004,0.0142 0.009,0.0325 0.015,0.0525 0.006,0.02 0.0117,0.0442 0.0183,0.0708 0.007,0.0267 0.0142,0.0567 0.0217,0.0908 0.008,0.0342 0.0167,0.0708 0.025,0.1125 0.009,0.0417 0.0183,0.0867 0.0283,0.13584 0.01,0.0492 0.02,0.1025 0.0317,0.16 0.0108,0.0575 0.0225,0.11916 0.0342,0.18583 0.0117,0.0667 0.0242,0.1375 0.0367,0.21333 0.0125,0.0758 0.0258,0.15667 0.0392,0.2425 0.0133,0.0858 0.0267,0.17584 0.0408,0.2725 0.0142,0.0958 0.0283,0.1975 0.0433,0.30417 0.015,0.10667 0.03,0.22 0.045,0.33833 0.0158,0.11834 0.0308,0.24251 0.0467,0.37251 0.0175,0.145 0.0317,0.28916 0.0425,0.43333 0.0108,0.14333 0.0192,0.2875 0.0242,0.43 0.005,0.1425 0.007,0.285 0.007,0.42667 0,0.14166 -0.002,0.2825 -0.007,0.4225 -0.005,0.14 -0.0117,0.27916 -0.0208,0.4175 -0.009,0.13833 -0.02,0.27666 -0.0325,0.4125 -0.0125,0.13666 -0.0267,0.2725 -0.0425,0.4075 -0.0158,0.135 -0.0333,0.26833 -0.0508,0.40083 -0.0175,0.1325 -0.0367,0.26417 -0.0567,0.395 -0.02,0.13 -0.0408,0.25917 -0.0617,0.3875 -0.0208,0.12834 -0.0425,0.255 -0.065,0.38 -0.0217,0.125 -0.0442,0.24917 -0.0658,0.37167 -0.0217,0.1225 -0.0442,0.24333 -0.0658,0.36333 -0.0217,0.12 -0.0425,0.23834 -0.0633,0.35417 -0.0208,0.11583 -0.04,0.23083 -0.0592,0.345 -0.0183,0.11334 -0.0367,0.225 -0.0533,0.33417 -0.0467,-0.0633 -0.0917,-0.12417 -0.13583,-0.18333 -0.0433,-0.0592 -0.0858,-0.11584 -0.12667,-0.17167 -0.0408,-0.0558 -0.0808,-0.11084 -0.12,-0.165 -0.0383,-0.0533 -0.0767,-0.1075 -0.1125,-0.16084 -0.0367,-0.0533 -0.0717,-0.10666 -0.10666,-0.16083 -0.035,-0.0542 -0.0683,-0.10917 -0.10167,-0.165 -0.0333,-0.0558 -0.065,-0.11333 -0.0967,-0.1725 -0.0317,-0.0592 -0.0625,-0.12083 -0.0933,-0.18333 -0.0308,-0.0633 -0.0608,-0.12917 -0.09,-0.19834 -0.03,-0.0692 -0.0592,-0.14083 -0.0875,-0.2175 -0.0283,-0.0767 -0.0575,-0.15583 -0.0858,-0.24 -0.0283,-0.0842 -0.0567,-0.1725 -0.085,-0.265 -0.0283,-0.0933 -0.0567,-0.19166 -0.085,-0.29583 -0.0283,-0.10417 -0.0567,-0.21333 -0.085,-0.32917 -0.0283,-0.11583 -0.0567,-0.2375 -0.0867,-0.36583 -0.0292,-0.12833 -0.0583,-0.26417 -0.0883,-0.4075 -0.02,-0.0958 -0.0383,-0.19 -0.0558,-0.28167 -0.0175,-0.0925 -0.0333,-0.18333 -0.0483,-0.27333 -0.015,-0.09 -0.0292,-0.1775 -0.0425,-0.26417 -0.0133,-0.0867 -0.025,-0.1725 -0.0367,-0.25667 -0.0117,-0.0842 -0.0225,-0.16666 -0.0325,-0.24833 -0.0108,-0.0817 -0.02,-0.16167 -0.0292,-0.24083 -0.009,-0.0792 -0.0183,-0.15667 -0.0267,-0.23417 -0.009,-0.0767 -0.0175,-0.1525 -0.025,-0.22667 -0.008,-0.0742 -0.0167,-0.14833 -0.0242,-0.22083 -0.008,-0.0725 -0.0167,-0.14417 -0.025,-0.21417 -0.008,-0.07 -0.0175,-0.14 -0.0267,-0.20916 -0.009,-0.0692 -0.0183,-0.13667 -0.0283,-0.20334 -0.01,-0.0667 -0.02,-0.13333 -0.0317,-0.19833 -0.0108,-0.0658 -0.0225,-0.13 -0.035,-0.19417 -0.0125,-0.0642 -0.0267,-0.12667 -0.0408,-0.19 -0.0142,-0.0625 -0.03,-0.125 -0.0467,-0.18667 -0.0342,0.0458 -0.0642,0.0917 -0.0908,0.1375 -0.0267,0.045 -0.0508,0.0908 -0.0717,0.1375 -0.0208,0.0467 -0.0392,0.0933 -0.0542,0.14167 -0.015,0.0483 -0.0275,0.0983 -0.0375,0.15 -0.01,0.0517 -0.0175,0.105 -0.0225,0.16167 -0.005,0.0558 -0.008,0.115 -0.01,0.17667 -0.002,0.0617 -8.4e-4,0.1275 0.002,0.19583 0.002,0.0692 0.006,0.14167 0.0117,0.21917 0.006,0.0775 0.0125,0.15916 0.02,0.24583 0.008,0.0867 0.0175,0.17917 0.0275,0.27667 0.01,0.0983 0.02,0.20166 0.0325,0.31166 0.0117,0.10917 0.0233,0.22584 0.0358,0.34834 0.0125,0.1225 0.025,0.25333 0.0383,0.39083 0.0125,0.1375 0.0258,0.2825 0.0383,0.43583 0.0125,0.15334 0.025,0.315 0.0375,0.48584 0.0125,0.17083 0.0242,0.35 0.035,0.53833 0.0117,0.19834 0.0175,0.38667 0.0183,0.56584 8.4e-4,0.17916 -0.004,0.34916 -0.0133,0.5125 -0.009,0.16333 -0.0225,0.31833 -0.0408,0.4675 -0.0183,0.14916 -0.04,0.2925 -0.065,0.43083 -0.025,0.13833 -0.0542,0.2725 -0.0867,0.4025 -0.0325,0.13 -0.0667,0.25833 -0.10417,0.38334 -0.0375,0.125 -0.0767,0.25 -0.11833,0.37333 -0.0417,0.12333 -0.085,0.2475 -0.12917,0.3725 -0.0442,0.125 -0.09,0.25083 -0.13666,0.38 -0.0458,0.12833 -0.0933,0.26 -0.14,0.39583 -0.0467,0.13584 -0.0933,0.275 -0.14,0.42084 -0.0467,0.145 -0.0925,0.29583 -0.1375,0.45416 -0.045,0.15834 -0.0883,0.32334 -0.13084,0.49667 -0.0417,0.17333 -0.0825,0.35584 -0.12083,0.5475 -0.0383,0.19167 -0.075,0.39417 -0.10833,0.6075 -0.0333,0.21334 -0.0633,0.43834 -0.0908,0.67667 -0.0817,-0.20417 -0.1575,-0.425 -0.2275,-0.66083 -0.07,-0.23584 -0.13416,-0.48584 -0.19333,-0.74667 -0.0592,-0.26084 -0.11333,-0.53334 -0.1625,-0.81417 -0.05,-0.28 -0.0942,-0.56917 -0.13417,-0.86333 -0.04,-0.29417 -0.0767,-0.59334 -0.10833,-0.89584 -0.0325,-0.3025 -0.0608,-0.60666 -0.0858,-0.91083 -0.025,-0.30417 -0.0467,-0.6075 -0.065,-0.9075 -0.0183,-0.3 -0.0342,-0.59667 -0.0467,-0.88667 -0.0125,-0.29 -0.0233,-0.57333 -0.0317,-0.84833 -0.008,-0.27417 -0.015,-0.53917 -0.0192,-0.79251 -0.004,-0.25333 -0.007,-0.49333 -0.008,-0.71916 -0.002,-0.22584 -0.002,-0.435 -0.002,-0.6275 0,-0.1925 0.002,-0.36584 0.003,-0.51917 0.002,-0.15333 0.003,-0.285 0.006,-0.3925 0.002,-0.1075 0.004,-0.19167 0.005,-0.24833 0.002,-0.0567 0.002,-0.0867 0.002,-0.0867 0,0 -0.003,0.008 -0.009,0.0233 -0.006,0.0158 -0.015,0.0392 -0.0258,0.0692 -0.0108,0.03 -0.025,0.0675 -0.0408,0.11083 -0.0158,0.0433 -0.0342,0.0933 -0.0542,0.14917 -0.02,0.0558 -0.0425,0.1175 -0.0658,0.18417 -0.0233,0.0667 -0.0483,0.13916 -0.075,0.21583 -0.0267,0.0767 -0.0533,0.15833 -0.0817,0.24417 -0.0283,0.0858 -0.0575,0.17583 -0.0867,0.26916 -0.0292,0.0933 -0.06,0.19084 -0.09,0.29084 -0.0308,0.1 -0.0617,0.20333 -0.0917,0.30833 -0.03,0.105 -0.0608,0.21333 -0.0908,0.32333 -0.03,0.10917 -0.0592,0.22084 -0.0883,0.33417 -0.0292,0.1125 -0.0567,0.22667 -0.0842,0.34167 -0.0267,0.115 -0.0525,0.23 -0.0775,0.34667 -0.025,0.11666 -0.0483,0.23166 -0.0692,0.3475 -0.0217,0.11583 -0.0408,0.23083 -0.0583,0.345 -0.02,0.13 -0.0392,0.25333 -0.0575,0.36833 -0.0183,0.115 -0.0367,0.225 -0.0542,0.3275 -0.0175,0.1025 -0.035,0.19917 -0.0525,0.29167 -0.0175,0.0925 -0.035,0.17833 -0.0525,0.26083 -0.0175,0.0825 -0.0358,0.16083 -0.055,0.23667 -0.0183,0.0758 -0.0383,0.14833 -0.0592,0.21833 -0.0208,0.07 -0.0425,0.13833 -0.0658,0.20583 -0.0233,0.0667 -0.0475,0.1325 -0.0733,0.19834 -0.0258,0.0658 -0.0533,0.13083 -0.0842,0.1975 -0.03,0.0667 -0.0617,0.13333 -0.0958,0.20167 -0.0342,0.0692 -0.0708,0.13916 -0.11,0.2125 -0.0392,0.0733 -0.0808,0.14916 -0.12583,0.22833 -0.045,0.0792 -0.0925,0.1625 -0.14333,0.25 -0.0517,0.0875 -0.10584,0.18 -0.16417,0.2775 -0.0575,0.0975 -0.12,0.20083 -0.185,0.31083 -0.0658,0.10917 -0.13583,0.22584 -0.20917,0.35 -0.0467,-0.20833 -0.0883,-0.42 -0.125,-0.63583 -0.0367,-0.21583 -0.0683,-0.43333 -0.0958,-0.65333 -0.0275,-0.22 -0.05,-0.4425 -0.0692,-0.66584 -0.0183,-0.22333 -0.0333,-0.4475 -0.0433,-0.67167 -0.01,-0.22416 -0.0175,-0.44916 -0.02,-0.6725 -0.003,-0.22416 -0.003,-0.44666 0,-0.6675 0.003,-0.22083 0.01,-0.44 0.0192,-0.65666 0.009,-0.21667 0.0217,-0.43084 0.0367,-0.64084 0.015,-0.21 0.0325,-0.41667 0.0517,-0.61833 0.0192,-0.20167 0.0408,-0.39917 0.0642,-0.59 0.0233,-0.19084 0.0492,-0.3775 0.075,-0.55667 0.0267,-0.18 0.055,-0.3525 0.0842,-0.51833 0.0292,-0.16584 0.0592,-0.32417 0.0908,-0.47334 0.0308,-0.15 0.0625,-0.29083 0.095,-0.4225 0.0325,-0.13167 0.065,-0.25417 0.0983,-0.36667 0.0333,-0.11166 0.0658,-0.21416 0.0983,-0.305 -0.0333,0.13834 -0.0675,0.27584 -0.1025,0.4125 -0.0358,0.1375 -0.0725,0.27417 -0.11083,0.41084 -0.0383,0.13667 -0.0775,0.2725 -0.1175,0.40917 -0.0408,0.13583 -0.0817,0.2725 -0.12333,0.40833 -0.0417,0.13583 -0.085,0.2725 -0.1275,0.40917 -0.0433,0.13666 -0.0867,0.27416 -0.13167,0.41166 -0.045,0.1375 -0.0883,0.27584 -0.13333,0.415 -0.045,0.13917 -0.09,0.27834 -0.13501,0.41834 -0.045,0.14 -0.0892,0.28166 -0.13416,0.42416 -0.0442,0.1425 -0.0883,0.28584 -0.1325,0.43084 -0.0442,0.145 -0.0875,0.29083 -0.13,0.43833 -0.0433,0.1475 -0.0858,0.29667 -0.12667,0.4475 -0.0408,0.15084 -0.0817,0.3025 -0.12167,0.45667 -0.0392,0.15417 -0.0783,0.31083 -0.115,0.46833 -0.0367,0.1575 -0.0733,0.3175 -0.1075,0.48 -0.035,0.1625 -0.0683,0.32667 -0.1,0.49334 -0.035,-0.0242 -0.0725,-0.0667 -0.11083,-0.125 -0.0383,-0.0583 -0.0775,-0.135 -0.1175,-0.225 -0.04,-0.09 -0.08,-0.19584 -0.12,-0.31417 -0.0392,-0.11917 -0.0792,-0.25083 -0.1175,-0.39417 -0.0383,-0.14333 -0.075,-0.29833 -0.11083,-0.46333 -0.035,-0.165 -0.0692,-0.34 -0.1,-0.52333 -0.0308,-0.18334 -0.0592,-0.375 -0.085,-0.57334 -0.0258,-0.19833 -0.0475,-0.40333 -0.065,-0.61333 -0.0175,-0.21 -0.0317,-0.425 -0.04,-0.64334 -0.009,-0.21833 -0.0142,-0.44083 -0.0125,-0.66416 0.002,-0.22334 0.008,-0.44917 0.0208,-0.675 0.0125,-0.22584 0.0317,-0.45167 0.0575,-0.67584 0.0258,-0.22417 0.0583,-0.4475 0.0992,-0.66667 0.0408,-0.21916 0.0883,-0.435 0.145,-0.64666 0.0567,-0.21167 0.12166,-0.41834 0.195,-0.61834 0.0733,-0.2 0.15666,-0.39416 0.24916,-0.58 z"
       id="path7"
       inkscape:connector-curvature="0" /></g></svg>